<svg xmlns="http://www.w3.org/2000/svg" viewBox="0 0 512 512" width="100%" height="100%">
  <defs>
    <linearGradient id="bgGrad" x1="0%" y1="0%" x2="100%" y2="100%">
      <stop offset="0%" stop-color="#0b132b" />
      <stop offset="100%" stop-color="#1c2541" />
    </linearGradient>
    <linearGradient id="goldGrad" x1="0%" y1="0%" x2="100%" y2="100%">
      <stop offset="0%" stop-color="#fbbf24" />
      <stop offset="100%" stop-color="#d97706" />
    </linearGradient>
  </defs>
  <rect width="512" height="512" rx="100" fill="url(#bgGrad)" />
  <circle cx="256" cy="256" r="180" fill="none" stroke="url(#goldGrad)" stroke-width="12" stroke-dasharray="8 8" opacity="0.6" />
  <!-- Crescent Moon -->
  <path d="M256 100 C 170 100 100 170 100 256 C 100 342 170 412 256 412 C 220 370 200 315 200 256 C 200 197 220 142 256 100 Z" fill="url(#goldGrad)" />
  <!-- Star -->
  <polygon points="340,160 352,192 386,192 358,212 368,244 340,224 312,244 322,212 294,192 328,192" fill="#38bdf8" />
</svg>
